<svg xmlns="http://www.w3.org/2000/svg" width="430" height="430" fill="none" viewBox="0 0 430 430"><path fill="#ebe6ef" d="M328 167.4h-37.7v136.8H328z"/><path stroke="#ebe6ef" stroke-linecap="round" stroke-linejoin="round" stroke-miterlimit="10" stroke-width="7" d="M309.1 198.301v75" opacity=".7" style="mix-blend-mode:multiply"/><path fill="#ebe6ef" d="M233.9 167.4h-37.7v136.8h37.7z"/><path stroke="#ebe6ef" stroke-linecap="round" stroke-linejoin="round" stroke-miterlimit="10" stroke-width="7" d="M215 198.301v75" opacity=".7" style="mix-blend-mode:multiply"/><path fill="#ebe6ef" d="M139.7 167.4H102v136.8h37.7z"/><path stroke="#ebe6ef" stroke-linecap="round" stroke-linejoin="round" stroke-miterlimit="10" stroke-width="7" d="M120.8 198.301v75" opacity=".7" style="mix-blend-mode:multiply"/><path fill="#646e78" d="M145.228 178.837a3 3 0 0 1-2.881 2.164H99.353a3 3 0 0 1-2.88-2.164L89.5 154.801h62.7zm94.105.01a3 3 0 0 1-2.879 2.154h-42.909a3 3 0 0 1-2.878-2.154l-7.067-24.046h62.8zm94.1 0a3 3 0 0 1-2.878 2.154h-42.91a3 3 0 0 1-2.878-2.154l-7.067-24.046h62.8zm-48.668 113.904a3 3 0 0 1 2.877-2.151h42.915c1.33 0 2.501.875 2.877 2.151L340.5 316.7h-62.8zm-94.1 0a3 3 0 0 1 2.877-2.151h42.915c1.33 0 2.501.875 2.877 2.151L246.4 316.7h-62.8zm-94.195.01a3 3 0 0 1 2.881-2.161h42.998c1.334 0 2.507.88 2.88 2.161L152.2 316.7H89.5z"/><path fill="#ebe6ef" d="M76.9 318.699a3 3 0 0 1 3-3h270.2a3 3 0 0 1 3 3v26.102h22.1a3 3 0 0 1 3 3v31.7a3 3 0 0 1-3 3H54.8a3 3 0 0 1-3-3v-31.7a3 3 0 0 1 3-3h22.1z"/><path fill="#ebe6ef" d="M350.1 315.699H79.9a3 3 0 0 0-3 3v26.16h276.2v-26.16a3 3 0 0 0-3-3" opacity=".5" style="mix-blend-mode:multiply"/><path fill="#ebe6ef" d="M216.425 48.27a3 3 0 0 0-2.85 0l-147.6 79.681a3 3 0 0 0-1.575 2.64v22.311a3 3 0 0 0 3 3h295.2a3 3 0 0 0 3-3v-22.311a3 3 0 0 0-1.575-2.64z"/><path fill="#ebe6ef" d="M365.007 128.801H64.992a3 3 0 0 0-.592 1.79v22.311a3 3 0 0 0 2.925 2.999h295.35a3 3 0 0 0 2.925-2.999v-22.311a3 3 0 0 0-.593-1.79" opacity=".7" style="mix-blend-mode:multiply"/><path fill="#646e78" d="M215 108.002c9.775 0 17.7-7.925 17.7-17.7 0-9.776-7.925-17.7-17.7-17.7-9.776 0-17.7 7.924-17.7 17.7s7.924 17.7 17.7 17.7"/></svg>